G04 Layer_Physical_Order=2*
G04 Layer_Color=16711680*
%FSLAX25Y25*%
%MOIN*%
G70*
G01*
G75*
%ADD15C,0.06000*%
%ADD16R,0.06000X0.06000*%
%ADD17C,0.05000*%
G36*
X312500Y215000D02*
X197500D01*
Y287500D01*
X312500D01*
Y215000D01*
D02*
G37*
%LPC*%
G36*
X258000Y226469D02*
Y223000D01*
X261469D01*
X261397Y223544D01*
X260994Y224517D01*
X260353Y225353D01*
X259517Y225994D01*
X258544Y226397D01*
X258000Y226469D01*
D02*
G37*
G36*
X257000D02*
X256456Y226397D01*
X255483Y225994D01*
X254647Y225353D01*
X254006Y224517D01*
X253603Y223544D01*
X253531Y223000D01*
X257000D01*
Y226469D01*
D02*
G37*
G36*
X212500Y228000D02*
X209536D01*
X209590Y227586D01*
X209943Y226735D01*
X210504Y226004D01*
X211235Y225443D01*
X212086Y225090D01*
X212500Y225036D01*
Y228000D01*
D02*
G37*
G36*
Y231964D02*
X212086Y231910D01*
X211235Y231557D01*
X210504Y230996D01*
X209943Y230265D01*
X209590Y229414D01*
X209536Y229000D01*
X212500D01*
Y231964D01*
D02*
G37*
G36*
X216464Y228000D02*
X213500D01*
Y225036D01*
X213914Y225090D01*
X214765Y225443D01*
X215496Y226004D01*
X216057Y226735D01*
X216410Y227586D01*
X216464Y228000D01*
D02*
G37*
G36*
X245000Y226535D02*
X243956Y226397D01*
X242983Y225994D01*
X242147Y225353D01*
X241506Y224517D01*
X241103Y223544D01*
X240966Y222500D01*
X241103Y221456D01*
X241506Y220483D01*
X242147Y219647D01*
X242983Y219006D01*
X243956Y218603D01*
X245000Y218465D01*
X246044Y218603D01*
X247017Y219006D01*
X247853Y219647D01*
X248494Y220483D01*
X248897Y221456D01*
X249035Y222500D01*
X248897Y223544D01*
X248494Y224517D01*
X247853Y225353D01*
X247017Y225994D01*
X246044Y226397D01*
X245000Y226535D01*
D02*
G37*
G36*
X235000D02*
X233956Y226397D01*
X232983Y225994D01*
X232147Y225353D01*
X231506Y224517D01*
X231103Y223544D01*
X230965Y222500D01*
X231103Y221456D01*
X231506Y220483D01*
X232147Y219647D01*
X232983Y219006D01*
X233956Y218603D01*
X235000Y218465D01*
X236044Y218603D01*
X237017Y219006D01*
X237853Y219647D01*
X238494Y220483D01*
X238897Y221456D01*
X239035Y222500D01*
X238897Y223544D01*
X238494Y224517D01*
X237853Y225353D01*
X237017Y225994D01*
X236044Y226397D01*
X235000Y226535D01*
D02*
G37*
G36*
X267500D02*
X266456Y226397D01*
X265483Y225994D01*
X264647Y225353D01*
X264006Y224517D01*
X263603Y223544D01*
X263465Y222500D01*
X263603Y221456D01*
X264006Y220483D01*
X264647Y219647D01*
X265483Y219006D01*
X266456Y218603D01*
X267500Y218465D01*
X268544Y218603D01*
X269517Y219006D01*
X270353Y219647D01*
X270994Y220483D01*
X271397Y221456D01*
X271534Y222500D01*
X271397Y223544D01*
X270994Y224517D01*
X270353Y225353D01*
X269517Y225994D01*
X268544Y226397D01*
X267500Y226535D01*
D02*
G37*
G36*
X261469Y222000D02*
X258000D01*
Y218531D01*
X258544Y218603D01*
X259517Y219006D01*
X260353Y219647D01*
X260994Y220483D01*
X261397Y221456D01*
X261469Y222000D01*
D02*
G37*
G36*
X257000D02*
X253531D01*
X253603Y221456D01*
X254006Y220483D01*
X254647Y219647D01*
X255483Y219006D01*
X256456Y218603D01*
X257000Y218531D01*
Y222000D01*
D02*
G37*
G36*
X213500Y231964D02*
Y229000D01*
X216464D01*
X216410Y229414D01*
X216057Y230265D01*
X215496Y230996D01*
X214765Y231557D01*
X213914Y231910D01*
X213500Y231964D01*
D02*
G37*
G36*
X257000Y277000D02*
X253531D01*
X253603Y276456D01*
X254006Y275483D01*
X254647Y274647D01*
X255483Y274006D01*
X256456Y273603D01*
X257000Y273531D01*
Y277000D01*
D02*
G37*
G36*
X267500Y281535D02*
X266456Y281397D01*
X265483Y280994D01*
X264647Y280353D01*
X264006Y279517D01*
X263603Y278544D01*
X263465Y277500D01*
X263603Y276456D01*
X264006Y275483D01*
X264647Y274647D01*
X265483Y274006D01*
X266456Y273603D01*
X267500Y273465D01*
X268544Y273603D01*
X269517Y274006D01*
X270353Y274647D01*
X270994Y275483D01*
X271397Y276456D01*
X271534Y277500D01*
X271397Y278544D01*
X270994Y279517D01*
X270353Y280353D01*
X269517Y280994D01*
X268544Y281397D01*
X267500Y281535D01*
D02*
G37*
G36*
X261469Y277000D02*
X258000D01*
Y273531D01*
X258544Y273603D01*
X259517Y274006D01*
X260353Y274647D01*
X260994Y275483D01*
X261397Y276456D01*
X261469Y277000D01*
D02*
G37*
G36*
X258000Y281469D02*
Y278000D01*
X261469D01*
X261397Y278544D01*
X260994Y279517D01*
X260353Y280353D01*
X259517Y280994D01*
X258544Y281397D01*
X258000Y281469D01*
D02*
G37*
G36*
X257000D02*
X256456Y281397D01*
X255483Y280994D01*
X254647Y280353D01*
X254006Y279517D01*
X253603Y278544D01*
X253531Y278000D01*
X257000D01*
Y281469D01*
D02*
G37*
G36*
X245000Y281535D02*
X243956Y281397D01*
X242983Y280994D01*
X242147Y280353D01*
X241506Y279517D01*
X241103Y278544D01*
X240966Y277500D01*
X241103Y276456D01*
X241506Y275483D01*
X242147Y274647D01*
X242983Y274006D01*
X243956Y273603D01*
X245000Y273465D01*
X246044Y273603D01*
X247017Y274006D01*
X247853Y274647D01*
X248494Y275483D01*
X248897Y276456D01*
X249035Y277500D01*
X248897Y278544D01*
X248494Y279517D01*
X247853Y280353D01*
X247017Y280994D01*
X246044Y281397D01*
X245000Y281535D01*
D02*
G37*
G36*
X224964Y268000D02*
X222000D01*
Y265036D01*
X222414Y265090D01*
X223265Y265443D01*
X223996Y266004D01*
X224557Y266735D01*
X224910Y267586D01*
X224964Y268000D01*
D02*
G37*
G36*
X221000D02*
X218036D01*
X218090Y267586D01*
X218443Y266735D01*
X219004Y266004D01*
X219735Y265443D01*
X220586Y265090D01*
X221000Y265036D01*
Y268000D01*
D02*
G37*
G36*
Y271964D02*
X220586Y271910D01*
X219735Y271557D01*
X219004Y270996D01*
X218443Y270265D01*
X218090Y269414D01*
X218036Y269000D01*
X221000D01*
Y271964D01*
D02*
G37*
G36*
X235000Y281535D02*
X233956Y281397D01*
X232983Y280994D01*
X232147Y280353D01*
X231506Y279517D01*
X231103Y278544D01*
X230965Y277500D01*
X231103Y276456D01*
X231506Y275483D01*
X232147Y274647D01*
X232983Y274006D01*
X233956Y273603D01*
X235000Y273465D01*
X236044Y273603D01*
X237017Y274006D01*
X237853Y274647D01*
X238494Y275483D01*
X238897Y276456D01*
X239035Y277500D01*
X238897Y278544D01*
X238494Y279517D01*
X237853Y280353D01*
X237017Y280994D01*
X236044Y281397D01*
X235000Y281535D01*
D02*
G37*
G36*
X222000Y271964D02*
Y269000D01*
X224964D01*
X224910Y269414D01*
X224557Y270265D01*
X223996Y270996D01*
X223265Y271557D01*
X222414Y271910D01*
X222000Y271964D01*
D02*
G37*
%LPD*%
D15*
X267500Y222500D02*
D03*
X257500D02*
D03*
X235000D02*
D03*
X245000D02*
D03*
X267500Y277500D02*
D03*
X257500D02*
D03*
X235000D02*
D03*
X245000D02*
D03*
X176500Y268500D02*
D03*
Y258500D02*
D03*
Y248500D02*
D03*
Y238500D02*
D03*
Y228500D02*
D03*
D16*
Y278500D02*
D03*
D17*
X221500Y268500D02*
D03*
X213000Y228500D02*
D03*
M02*
