G04 Layer_Color=65535*
%FSLAX25Y25*%
%MOIN*%
G70*
G01*
G75*
%ADD14C,0.01000*%
%ADD18C,0.00787*%
%ADD19C,0.01575*%
%ADD20C,0.00600*%
%ADD21C,0.00500*%
D14*
X267500Y217500D02*
X268476Y217596D01*
X269413Y217881D01*
X270278Y218343D01*
X271036Y218965D01*
X271657Y219722D01*
X272119Y220587D01*
X272404Y221525D01*
X272500Y222500D01*
X272404Y223476D01*
X272119Y224413D01*
X271657Y225278D01*
X271036Y226035D01*
X270278Y226657D01*
X269413Y227119D01*
X268476Y227404D01*
X267500Y227500D01*
X245000Y217500D02*
X245975Y217596D01*
X246913Y217881D01*
X247778Y218343D01*
X248535Y218965D01*
X249157Y219722D01*
X249619Y220587D01*
X249904Y221525D01*
X250000Y222500D01*
X249904Y223476D01*
X249619Y224413D01*
X249157Y225278D01*
X248535Y226035D01*
X247778Y226657D01*
X246913Y227119D01*
X245975Y227404D01*
X245000Y227500D01*
X267500Y272500D02*
X268476Y272596D01*
X269413Y272881D01*
X270278Y273343D01*
X271036Y273965D01*
X271657Y274722D01*
X272119Y275587D01*
X272404Y276524D01*
X272500Y277500D01*
X272404Y278475D01*
X272119Y279413D01*
X271657Y280278D01*
X271036Y281035D01*
X270278Y281657D01*
X269413Y282119D01*
X268476Y282404D01*
X267500Y282500D01*
X245000Y272500D02*
X245975Y272596D01*
X246913Y272881D01*
X247778Y273343D01*
X248535Y273965D01*
X249157Y274722D01*
X249619Y275587D01*
X249904Y276524D01*
X250000Y277500D01*
X249904Y278475D01*
X249619Y279413D01*
X249157Y280278D01*
X248535Y281035D01*
X247778Y281657D01*
X246913Y282119D01*
X245975Y282404D01*
X245000Y282500D01*
X252500Y217500D02*
X267500D01*
X252500D02*
Y227500D01*
X267500D01*
X230000D02*
X245000D01*
X230000Y217500D02*
Y227500D01*
Y217500D02*
X245000D01*
X252500Y272500D02*
X267500D01*
X252500D02*
Y282500D01*
X267500D01*
X230000D02*
X245000D01*
X230000Y272500D02*
Y282500D01*
Y272500D02*
X245000D01*
X165000Y220998D02*
Y215000D01*
X167999D01*
X168999Y216000D01*
Y216999D01*
X167999Y217999D01*
X165000D01*
X167999D01*
X168999Y218999D01*
Y219998D01*
X167999Y220998D01*
X165000D01*
X170998Y215000D02*
X172997D01*
X171998D01*
Y218999D01*
X170998D01*
X176996Y219998D02*
Y218999D01*
X175996D01*
X177996D01*
X176996D01*
Y216000D01*
X177996Y215000D01*
X184994Y219998D02*
X183994Y220998D01*
X181994D01*
X180995Y219998D01*
Y216000D01*
X181994Y215000D01*
X183994D01*
X184994Y216000D01*
Y217999D01*
X182994D01*
X186993Y215000D02*
Y220998D01*
X190992Y215000D01*
Y220998D01*
X308500Y249999D02*
X312499D01*
X310499Y251998D02*
Y248000D01*
X240499Y256498D02*
X239499Y257498D01*
X237500D01*
X236500Y256498D01*
Y252500D01*
X237500Y251500D01*
X239499D01*
X240499Y252500D01*
X242498Y251500D02*
X244497D01*
X243498D01*
Y257498D01*
X242498Y256498D01*
X207240Y265500D02*
Y270498D01*
X209739D01*
X210573Y269665D01*
Y267999D01*
X209739Y267166D01*
X207240D01*
X208906D02*
X210573Y265500D01*
X212239Y269665D02*
X213072Y270498D01*
X214738D01*
X215571Y269665D01*
Y268832D01*
X214738Y267999D01*
X215571Y267166D01*
Y266333D01*
X214738Y265500D01*
X213072D01*
X212239Y266333D01*
Y267166D01*
X213072Y267999D01*
X212239Y268832D01*
Y269665D01*
X213072Y267999D02*
X214738D01*
X263500Y254500D02*
Y259498D01*
X265999D01*
X266832Y258665D01*
Y256999D01*
X265999Y256166D01*
X263500D01*
X265166D02*
X266832Y254500D01*
X268498Y259498D02*
X271831D01*
Y258665D01*
X268498Y255333D01*
Y254500D01*
X290189Y269626D02*
Y275624D01*
X293188D01*
X294188Y274624D01*
Y272625D01*
X293188Y271625D01*
X290189D01*
X292188D02*
X294188Y269626D01*
X300186Y275624D02*
X298186Y274624D01*
X296187Y272625D01*
Y270626D01*
X297187Y269626D01*
X299186D01*
X300186Y270626D01*
Y271625D01*
X299186Y272625D01*
X296187D01*
X207000Y246000D02*
Y250998D01*
X209499D01*
X210332Y250165D01*
Y248499D01*
X209499Y247666D01*
X207000D01*
X208666D02*
X210332Y246000D01*
X211998Y250165D02*
X212831Y250998D01*
X214498D01*
X215331Y250165D01*
Y249332D01*
X214498Y248499D01*
X213665D01*
X214498D01*
X215331Y247666D01*
Y246833D01*
X214498Y246000D01*
X212831D01*
X211998Y246833D01*
X263000Y240000D02*
Y244998D01*
X265499D01*
X266332Y244165D01*
Y242499D01*
X265499Y241666D01*
X263000D01*
X264666D02*
X266332Y240000D01*
X271331D02*
X267998D01*
X271331Y243332D01*
Y244165D01*
X270498Y244998D01*
X268831D01*
X267998Y244165D01*
X291189Y224626D02*
Y230624D01*
X294188D01*
X295188Y229624D01*
Y227625D01*
X294188Y226625D01*
X291189D01*
X293188D02*
X295188Y224626D01*
X297187D02*
X299186D01*
X298187D01*
Y230624D01*
X297187Y229624D01*
X207000Y275000D02*
Y279998D01*
X209499D01*
X210332Y279165D01*
Y277499D01*
X209499Y276666D01*
X207000D01*
X208666D02*
X210332Y275000D01*
X215331Y279998D02*
X211998D01*
Y277499D01*
X213665Y278332D01*
X214498D01*
X215331Y277499D01*
Y275833D01*
X214498Y275000D01*
X212831D01*
X211998Y275833D01*
X207000Y256000D02*
Y260998D01*
X209499D01*
X210332Y260165D01*
Y258499D01*
X209499Y257666D01*
X207000D01*
X208666D02*
X210332Y256000D01*
X214498D02*
Y260998D01*
X211998Y258499D01*
X215331D01*
X221832Y275833D02*
Y279165D01*
X220999Y279998D01*
X219333D01*
X218500Y279165D01*
Y275833D01*
X219333Y275000D01*
X220999D01*
X220166Y276666D02*
X221832Y275000D01*
X220999D02*
X221832Y275833D01*
X226831Y275000D02*
X223498D01*
X226831Y278332D01*
Y279165D01*
X225998Y279998D01*
X224331D01*
X223498Y279165D01*
X222332Y220333D02*
Y223665D01*
X221499Y224498D01*
X219833D01*
X219000Y223665D01*
Y220333D01*
X219833Y219500D01*
X221499D01*
X220666Y221166D02*
X222332Y219500D01*
X221499D02*
X222332Y220333D01*
X223998Y219500D02*
X225664D01*
X224831D01*
Y224498D01*
X223998Y223665D01*
X243500Y240498D02*
Y235500D01*
X246832D01*
X248498D02*
X250165D01*
X249331D01*
Y240498D01*
X248498Y239665D01*
X198332Y221498D02*
X195000D01*
Y218999D01*
X196666D01*
X195000D01*
Y216500D01*
X199998Y221498D02*
Y216500D01*
X202498D01*
X203331Y217333D01*
Y218166D01*
X202498Y218999D01*
X199998D01*
X202498D01*
X203331Y219832D01*
Y220665D01*
X202498Y221498D01*
X199998D01*
X208329Y216500D02*
X204997D01*
X208329Y219832D01*
Y220665D01*
X207496Y221498D01*
X205830D01*
X204997Y220665D01*
X210832Y240998D02*
X207500D01*
Y238499D01*
X209166D01*
X207500D01*
Y236000D01*
X212498Y240998D02*
Y236000D01*
X214998D01*
X215831Y236833D01*
Y237666D01*
X214998Y238499D01*
X212498D01*
X214998D01*
X215831Y239332D01*
Y240165D01*
X214998Y240998D01*
X212498D01*
X217497Y236000D02*
X219163D01*
X218330D01*
Y240998D01*
X217497Y240165D01*
X298739Y256499D02*
X297739Y257498D01*
X295740D01*
X294740Y256499D01*
Y252500D01*
X295740Y251500D01*
X297739D01*
X298739Y252500D01*
X300738Y256499D02*
X301738Y257498D01*
X303737D01*
X304737Y256499D01*
Y255499D01*
X303737Y254499D01*
X302738D01*
X303737D01*
X304737Y253499D01*
Y252500D01*
X303737Y251500D01*
X301738D01*
X300738Y252500D01*
X298739Y247498D02*
X297739Y248498D01*
X295740D01*
X294740Y247498D01*
Y243500D01*
X295740Y242500D01*
X297739D01*
X298739Y243500D01*
X304737Y242500D02*
X300738D01*
X304737Y246499D01*
Y247498D01*
X303737Y248498D01*
X301738D01*
X300738Y247498D01*
D18*
X277715Y267681D02*
D03*
Y222681D02*
D03*
D19*
X177338Y286856D02*
X176793Y287605D01*
X175913Y287319D01*
Y286393D01*
X176793Y286107D01*
X177338Y286856D01*
D20*
X225650Y262000D02*
Y263290D01*
X225810Y263450D01*
X258000D01*
X225650Y245550D02*
Y247000D01*
Y245550D02*
X258000D01*
Y263450D01*
D21*
X164000Y223500D02*
Y283500D01*
X186500D01*
Y223500D02*
Y283500D01*
X164000Y223500D02*
X186500D01*
M02*
