G04 Layer_Physical_Order=1*
G04 Layer_Color=255*
%FSLAX25Y25*%
%MOIN*%
G70*
G01*
G75*
%ADD10R,0.08900X0.09800*%
%ADD11R,0.05118X0.05905*%
%ADD12R,0.07874X0.06299*%
%ADD13R,0.07874X0.07874*%
%ADD14C,0.01000*%
%ADD15C,0.06000*%
%ADD16R,0.06000X0.06000*%
%ADD17C,0.05000*%
G36*
X312500Y215000D02*
X197500D01*
Y220971D01*
X231304D01*
X231506Y220483D01*
X232147Y219647D01*
X232983Y219006D01*
X233956Y218603D01*
X235000Y218465D01*
X236044Y218603D01*
X237017Y219006D01*
X237853Y219647D01*
X238494Y220483D01*
X238897Y221456D01*
X239035Y222500D01*
X238897Y223544D01*
X238494Y224517D01*
X237853Y225353D01*
X237017Y225994D01*
X236044Y226397D01*
X235000Y226535D01*
X233956Y226397D01*
X232983Y225994D01*
X232147Y225353D01*
X231506Y224517D01*
X231304Y224029D01*
X198004D01*
X197992Y224047D01*
X197992Y224058D01*
X198261Y224547D01*
X204799D01*
Y226971D01*
X209845D01*
X209943Y226735D01*
X210504Y226004D01*
X211235Y225443D01*
X212086Y225090D01*
X213000Y224970D01*
X213914Y225090D01*
X214765Y225443D01*
X215496Y226004D01*
X216057Y226735D01*
X216410Y227586D01*
X216530Y228500D01*
X216410Y229414D01*
X216057Y230265D01*
X215496Y230996D01*
X214765Y231557D01*
X213914Y231910D01*
X213000Y232030D01*
X212086Y231910D01*
X211235Y231557D01*
X210504Y230996D01*
X209943Y230265D01*
X209845Y230029D01*
X204799D01*
Y232453D01*
X198000D01*
X197681Y232453D01*
X197500Y232878D01*
Y234122D01*
X197681Y234547D01*
X198000Y234547D01*
X204799D01*
Y236971D01*
X225701D01*
Y234547D01*
X232681D01*
X232819Y234547D01*
X233181D01*
X233319Y234547D01*
X236240D01*
Y238500D01*
Y242453D01*
X233319D01*
X233181Y242453D01*
X232819D01*
X232681Y242453D01*
X231529D01*
Y248600D01*
X235450D01*
Y260400D01*
X224550D01*
Y248600D01*
X228471D01*
Y242453D01*
X225701D01*
Y240030D01*
X204799D01*
Y242453D01*
X198000D01*
X197681Y242453D01*
X197500Y242878D01*
Y244357D01*
X197921Y244547D01*
X198059Y244547D01*
X205039D01*
Y252453D01*
X203010D01*
Y254547D01*
X205039D01*
Y257403D01*
X205062Y257418D01*
X205393Y257915D01*
X205510Y258500D01*
X205393Y259085D01*
X205062Y259581D01*
X205062Y259581D01*
X205039Y259596D01*
Y262453D01*
X203010D01*
Y264547D01*
X205039D01*
Y266971D01*
X218345D01*
X218443Y266735D01*
X219004Y266004D01*
X219735Y265443D01*
X220586Y265090D01*
X221500Y264970D01*
X222414Y265090D01*
X223265Y265443D01*
X223996Y266004D01*
X224557Y266735D01*
X224910Y267586D01*
X225030Y268500D01*
X224910Y269414D01*
X224557Y270265D01*
X223996Y270996D01*
X223265Y271557D01*
X222414Y271910D01*
X221500Y272030D01*
X220586Y271910D01*
X219735Y271557D01*
X219004Y270996D01*
X218443Y270265D01*
X218345Y270029D01*
X205039D01*
Y272453D01*
X203010D01*
Y274047D01*
X204799D01*
Y281953D01*
X198000D01*
X197681Y281953D01*
X197500Y282378D01*
Y283471D01*
X226867D01*
X231305Y279032D01*
X231103Y278544D01*
X230965Y277500D01*
X231103Y276456D01*
X231506Y275483D01*
X232147Y274647D01*
X232983Y274006D01*
X233956Y273603D01*
X235000Y273465D01*
X236044Y273603D01*
X237017Y274006D01*
X237853Y274647D01*
X238494Y275483D01*
X238897Y276456D01*
X239035Y277500D01*
X238897Y278544D01*
X238494Y279517D01*
X237853Y280353D01*
X237017Y280994D01*
X236044Y281397D01*
X235000Y281535D01*
X233956Y281397D01*
X233468Y281195D01*
X228581Y286081D01*
X228085Y286413D01*
X227500Y286529D01*
X197500D01*
Y287500D01*
X312500D01*
X312500Y215000D01*
D02*
G37*
%LPC*%
G36*
X306311Y232437D02*
X301874D01*
Y228000D01*
X306311D01*
Y232437D01*
D02*
G37*
G36*
X245500Y226469D02*
Y223000D01*
X248969D01*
X248897Y223544D01*
X248494Y224517D01*
X247853Y225353D01*
X247017Y225994D01*
X246044Y226397D01*
X245500Y226469D01*
D02*
G37*
G36*
X267681Y237453D02*
X267319D01*
X267181Y237453D01*
X260201D01*
Y229547D01*
X262230D01*
Y226240D01*
X262347Y225655D01*
X262679Y225159D01*
X263805Y224032D01*
X263603Y223544D01*
X263465Y222500D01*
X263603Y221456D01*
X264006Y220483D01*
X264647Y219647D01*
X265483Y219006D01*
X266456Y218603D01*
X267500Y218465D01*
X268544Y218603D01*
X269517Y219006D01*
X270353Y219647D01*
X270994Y220483D01*
X271397Y221456D01*
X271534Y222500D01*
X271397Y223544D01*
X270994Y224517D01*
X270353Y225353D01*
X269517Y225994D01*
X268544Y226397D01*
X267500Y226535D01*
X266456Y226397D01*
X265968Y226195D01*
X265289Y226874D01*
Y229547D01*
X267181D01*
X267319Y229547D01*
X267681D01*
X267819Y229547D01*
X274799D01*
Y231971D01*
X278252D01*
Y227976D01*
X288126D01*
Y236275D01*
X278252D01*
Y235029D01*
X274799D01*
Y237453D01*
X267819D01*
X267681Y237453D01*
D02*
G37*
G36*
X237240Y242453D02*
Y239000D01*
X240299D01*
Y242453D01*
X237240D01*
D02*
G37*
G36*
X291799Y244500D02*
X288740D01*
Y241047D01*
X291799D01*
Y244500D01*
D02*
G37*
G36*
X311748Y232437D02*
X307311D01*
Y228000D01*
X311748D01*
Y232437D01*
D02*
G37*
G36*
X240299Y238000D02*
X237240D01*
Y234547D01*
X240299D01*
Y238000D01*
D02*
G37*
G36*
X248969Y222000D02*
X245500D01*
Y218531D01*
X246044Y218603D01*
X247017Y219006D01*
X247853Y219647D01*
X248494Y220483D01*
X248897Y221456D01*
X248969Y222000D01*
D02*
G37*
G36*
X244500D02*
X241031D01*
X241103Y221456D01*
X241506Y220483D01*
X242147Y219647D01*
X242983Y219006D01*
X243956Y218603D01*
X244500Y218531D01*
Y222000D01*
D02*
G37*
G36*
X257500Y226535D02*
X256456Y226397D01*
X255483Y225994D01*
X254647Y225353D01*
X254006Y224517D01*
X253603Y223544D01*
X253466Y222500D01*
X253603Y221456D01*
X254006Y220483D01*
X254647Y219647D01*
X255483Y219006D01*
X256456Y218603D01*
X257500Y218465D01*
X258544Y218603D01*
X259517Y219006D01*
X260353Y219647D01*
X260994Y220483D01*
X261397Y221456D01*
X261535Y222500D01*
X261397Y223544D01*
X260994Y224517D01*
X260353Y225353D01*
X259517Y225994D01*
X258544Y226397D01*
X257500Y226535D01*
D02*
G37*
G36*
X288126Y227023D02*
X278252D01*
Y218724D01*
X288126D01*
Y227023D01*
D02*
G37*
G36*
X244500Y226469D02*
X243956Y226397D01*
X242983Y225994D01*
X242147Y225353D01*
X241506Y224517D01*
X241103Y223544D01*
X241031Y223000D01*
X244500D01*
Y226469D01*
D02*
G37*
G36*
X311748Y227000D02*
X307311D01*
Y222563D01*
X311748D01*
Y227000D01*
D02*
G37*
G36*
X306311D02*
X301874D01*
Y222563D01*
X306311D01*
Y227000D01*
D02*
G37*
G36*
X257500Y281535D02*
X256456Y281397D01*
X255483Y280994D01*
X254647Y280353D01*
X254006Y279517D01*
X253603Y278544D01*
X253466Y277500D01*
X253603Y276456D01*
X253805Y275968D01*
X249919Y272081D01*
X249587Y271585D01*
X249471Y271000D01*
Y260400D01*
X245550D01*
Y248600D01*
X256450D01*
Y250101D01*
X256529Y250500D01*
X256450Y250899D01*
Y253471D01*
X277201D01*
Y251047D01*
X279230D01*
Y248953D01*
X277201D01*
Y241047D01*
X284181D01*
X284319Y241047D01*
X284681D01*
X284819Y241047D01*
X287740D01*
Y245000D01*
Y248953D01*
X284819D01*
X284681Y248953D01*
X284319D01*
X284181Y248953D01*
X282289D01*
Y251047D01*
X284181D01*
X284319Y251047D01*
X284681D01*
X284819Y251047D01*
X287740D01*
Y255000D01*
Y258953D01*
X284819D01*
X284681Y258953D01*
X284319D01*
X284181Y258953D01*
X277201D01*
Y256529D01*
X256450D01*
Y260400D01*
X252529D01*
Y270367D01*
X255968Y273805D01*
X256456Y273603D01*
X257500Y273465D01*
X258544Y273603D01*
X259517Y274006D01*
X260353Y274647D01*
X260994Y275483D01*
X261397Y276456D01*
X261535Y277500D01*
X261397Y278544D01*
X260994Y279517D01*
X260353Y280353D01*
X259517Y280994D01*
X258544Y281397D01*
X257500Y281535D01*
D02*
G37*
G36*
X311748Y277437D02*
X307311D01*
Y273000D01*
X311748D01*
Y277437D01*
D02*
G37*
G36*
X306311D02*
X301874D01*
Y273000D01*
X306311D01*
Y277437D01*
D02*
G37*
G36*
X244500Y277000D02*
X241031D01*
X241103Y276456D01*
X241506Y275483D01*
X242147Y274647D01*
X242983Y274006D01*
X243956Y273603D01*
X244500Y273531D01*
Y277000D01*
D02*
G37*
G36*
X245500Y281469D02*
Y278000D01*
X248969D01*
X248897Y278544D01*
X248494Y279517D01*
X247853Y280353D01*
X247017Y280994D01*
X246044Y281397D01*
X245500Y281469D01*
D02*
G37*
G36*
X244500D02*
X243956Y281397D01*
X242983Y280994D01*
X242147Y280353D01*
X241506Y279517D01*
X241103Y278544D01*
X241031Y278000D01*
X244500D01*
Y281469D01*
D02*
G37*
G36*
X248969Y277000D02*
X245500D01*
Y273531D01*
X246044Y273603D01*
X247017Y274006D01*
X247853Y274647D01*
X248494Y275483D01*
X248897Y276456D01*
X248969Y277000D01*
D02*
G37*
G36*
X288740Y258953D02*
Y255500D01*
X291799D01*
Y258953D01*
X288740D01*
D02*
G37*
G36*
X291799Y254500D02*
X288740D01*
Y251047D01*
X291799D01*
Y254500D01*
D02*
G37*
G36*
X288740Y248953D02*
Y245500D01*
X291799D01*
Y248953D01*
X288740D01*
D02*
G37*
G36*
X288126Y272024D02*
X278252D01*
Y263725D01*
X288126D01*
Y272024D01*
D02*
G37*
G36*
X267500Y281535D02*
X266456Y281397D01*
X265483Y280994D01*
X264647Y280353D01*
X264006Y279517D01*
X263603Y278544D01*
X263465Y277500D01*
X263603Y276456D01*
X263805Y275968D01*
X262178Y274341D01*
X261847Y273845D01*
X261730Y273260D01*
Y269953D01*
X259701D01*
Y262047D01*
X266681D01*
X266819Y262047D01*
X267181D01*
X267319Y262047D01*
X274299D01*
Y269953D01*
X272270D01*
Y270607D01*
X276634Y274971D01*
X278252D01*
Y272977D01*
X288126D01*
Y281276D01*
X278252D01*
Y278029D01*
X276000D01*
X275415Y277913D01*
X274919Y277581D01*
X269659Y272322D01*
X269327Y271826D01*
X269211Y271240D01*
Y269953D01*
X267319D01*
X267181Y269953D01*
X266819D01*
X266681Y269953D01*
X264789D01*
Y272626D01*
X265968Y273805D01*
X266456Y273603D01*
X267500Y273465D01*
X268544Y273603D01*
X269517Y274006D01*
X270353Y274647D01*
X270994Y275483D01*
X271397Y276456D01*
X271534Y277500D01*
X271397Y278544D01*
X270994Y279517D01*
X270353Y280353D01*
X269517Y280994D01*
X268544Y281397D01*
X267500Y281535D01*
D02*
G37*
G36*
X311748Y272000D02*
X307311D01*
Y267563D01*
X311748D01*
Y272000D01*
D02*
G37*
G36*
X306311D02*
X301874D01*
Y267563D01*
X306311D01*
Y272000D01*
D02*
G37*
%LPD*%
D10*
X251000Y254500D02*
D03*
X230000D02*
D03*
D11*
X229260Y238500D02*
D03*
X236740D02*
D03*
X263760Y233500D02*
D03*
X271240D02*
D03*
X263260Y266000D02*
D03*
X270740D02*
D03*
X193760Y228500D02*
D03*
X201240D02*
D03*
X193760Y238500D02*
D03*
X201240D02*
D03*
X201480Y248500D02*
D03*
X194000D02*
D03*
X201480Y258500D02*
D03*
X194000D02*
D03*
X201480Y268500D02*
D03*
X194000D02*
D03*
X201240Y278000D02*
D03*
X193760D02*
D03*
X288240Y255000D02*
D03*
X280760D02*
D03*
X288240Y245000D02*
D03*
X280760D02*
D03*
D12*
X283189Y277126D02*
D03*
Y267874D02*
D03*
Y232126D02*
D03*
Y222874D02*
D03*
D13*
X306811Y272500D02*
D03*
Y227500D02*
D03*
D14*
X201480Y248500D02*
Y268500D01*
X237240Y237000D02*
X238500Y238260D01*
X201481Y268500D02*
X221500D01*
X201480Y268500D02*
X201481Y268500D01*
X251000Y254500D02*
Y271000D01*
X251500Y255000D02*
X280760D01*
X176500Y228500D02*
X193760D01*
X176500Y238500D02*
X193760D01*
X176500Y248500D02*
X194000D01*
X176500Y258500D02*
X194000D01*
X176500Y268500D02*
X194000D01*
X176500Y278500D02*
X177000Y278000D01*
X193760D01*
X172000Y285000D02*
X227500D01*
X235000Y277500D01*
X270740Y266000D02*
Y271240D01*
X263260Y266000D02*
Y273260D01*
X267500Y277500D01*
X263760Y226240D02*
Y233500D01*
Y226240D02*
X267500Y222500D01*
X281815Y233500D02*
X283189Y232126D01*
X271240Y233500D02*
X281815D01*
X201480Y268500D02*
Y277760D01*
X201240Y278000D02*
X201480Y277760D01*
X251000Y271000D02*
X257500Y277500D01*
X270740Y271240D02*
X276000Y276500D01*
X282563D01*
X283189Y277126D01*
X203740Y228500D02*
X213000D01*
X230000Y237240D02*
Y254500D01*
X228260Y238500D02*
X229760Y237000D01*
X169500Y225500D02*
X172500Y222500D01*
X235000D01*
X251000Y254500D02*
X255000Y250500D01*
X203740Y228500D02*
X203740Y228500D01*
X170000Y283000D02*
X172000Y285000D01*
X251000Y254500D02*
X251500Y255000D01*
X176500Y268500D02*
X176500D01*
X170000Y275000D02*
X176500Y268500D01*
X170000Y275000D02*
Y283000D01*
X169500Y225500D02*
Y241500D01*
X280760Y245000D02*
Y255000D01*
X203740Y238500D02*
X228260D01*
X169500Y241500D02*
X176500Y248500D01*
X237240Y236500D02*
X238500Y235240D01*
X237240Y236500D02*
Y237000D01*
X203980Y258500D02*
X203980Y258500D01*
X229760Y237000D02*
X230000Y237240D01*
D15*
X267500Y222500D02*
D03*
X257500D02*
D03*
X235000D02*
D03*
X245000D02*
D03*
X267500Y277500D02*
D03*
X257500D02*
D03*
X235000D02*
D03*
X245000D02*
D03*
X176500Y268500D02*
D03*
Y258500D02*
D03*
Y248500D02*
D03*
Y238500D02*
D03*
Y228500D02*
D03*
D16*
Y278500D02*
D03*
D17*
X221500Y268500D02*
D03*
X213000Y228500D02*
D03*
M02*
