G04 Layer_Color=0*
%FSLAX25Y25*%
%MOIN*%
G70*
G01*
G75*
%ADD30C,0.00200*%
%ADD31C,0.00197*%
D30*
X225823Y242370D02*
X240177D01*
X225823Y234630D02*
X240177D01*
X225823D02*
Y242370D01*
X240177Y234630D02*
Y242370D01*
X260323Y237370D02*
X274677D01*
X260323Y229630D02*
X274677D01*
X260323D02*
Y237370D01*
X274677Y229630D02*
Y237370D01*
X259823Y269870D02*
X274177D01*
X259823Y262130D02*
X274177D01*
X259823D02*
Y269870D01*
X274177Y262130D02*
Y269870D01*
X190323Y232370D02*
X204677D01*
X190323Y224630D02*
X204677D01*
X190323D02*
Y232370D01*
X204677Y224630D02*
Y232370D01*
X190323Y242370D02*
X204677D01*
X190323Y234630D02*
X204677D01*
X190323D02*
Y242370D01*
X204677Y234630D02*
Y242370D01*
X190563Y244630D02*
X204917D01*
X190563Y252370D02*
X204917D01*
Y244630D02*
Y252370D01*
X190563Y244630D02*
Y252370D01*
Y254630D02*
X204917D01*
X190563Y262370D02*
X204917D01*
Y254630D02*
Y262370D01*
X190563Y254630D02*
Y262370D01*
Y264630D02*
X204917D01*
X190563Y272370D02*
X204917D01*
Y264630D02*
Y272370D01*
X190563Y264630D02*
Y272370D01*
X190323Y274130D02*
X204677D01*
X190323Y281870D02*
X204677D01*
Y274130D02*
Y281870D01*
X190323Y274130D02*
Y281870D01*
X277323Y251130D02*
X291677D01*
X277323Y258870D02*
X291677D01*
Y251130D02*
Y258870D01*
X277323Y251130D02*
Y258870D01*
Y241130D02*
X291677D01*
X277323Y248870D02*
X291677D01*
Y241130D02*
Y248870D01*
X277323Y241130D02*
Y248870D01*
D31*
X163016Y222516D02*
Y284484D01*
X187484D01*
Y222516D02*
Y284484D01*
X163016Y222516D02*
X187484D01*
M02*
