G04 Layer_Color=32896*
%FSLAX25Y25*%
%MOIN*%
G70*
G01*
G75*
%ADD19C,0.01575*%
%ADD21C,0.00500*%
%ADD29C,0.00400*%
G36*
X201853Y235648D02*
X198901D01*
Y241359D01*
X201853D01*
Y235648D01*
D02*
G37*
G36*
X237353Y235648D02*
X234401D01*
Y241359D01*
X237353D01*
Y235648D01*
D02*
G37*
G36*
X283099Y242141D02*
X280147D01*
Y247852D01*
X283099D01*
Y242141D01*
D02*
G37*
G36*
X196339Y245641D02*
X193387D01*
Y251352D01*
X196339D01*
Y245641D01*
D02*
G37*
G36*
X288808Y242141D02*
X285847D01*
Y247855D01*
X288808D01*
Y242141D01*
D02*
G37*
G36*
X196153Y235645D02*
X193192D01*
Y241359D01*
X196153D01*
Y235645D01*
D02*
G37*
G36*
X201853Y225648D02*
X198901D01*
Y231359D01*
X201853D01*
Y225648D01*
D02*
G37*
G36*
X196153Y225645D02*
X193192D01*
Y231359D01*
X196153D01*
Y225645D01*
D02*
G37*
G36*
X266153Y230644D02*
X263192D01*
Y236359D01*
X266153D01*
Y230644D01*
D02*
G37*
G36*
X231653Y235645D02*
X228692D01*
Y241359D01*
X231653D01*
Y235645D01*
D02*
G37*
G36*
X271853Y230648D02*
X268901D01*
Y236359D01*
X271853D01*
Y230648D01*
D02*
G37*
G36*
X196339Y265641D02*
X193387D01*
Y271352D01*
X196339D01*
Y265641D01*
D02*
G37*
G36*
X271353Y263148D02*
X268401D01*
Y268859D01*
X271353D01*
Y263148D01*
D02*
G37*
G36*
X202048Y265641D02*
X199087D01*
Y271356D01*
X202048D01*
Y265641D01*
D02*
G37*
G36*
X201808Y275141D02*
X198847D01*
Y280855D01*
X201808D01*
Y275141D01*
D02*
G37*
G36*
X196099D02*
X193147D01*
Y280852D01*
X196099D01*
Y275141D01*
D02*
G37*
G36*
X265653Y263144D02*
X262692D01*
Y268859D01*
X265653D01*
Y263144D01*
D02*
G37*
G36*
X283099Y252141D02*
X280147D01*
Y257852D01*
X283099D01*
Y252141D01*
D02*
G37*
G36*
X202048Y245641D02*
X199087D01*
Y251356D01*
X202048D01*
Y245641D01*
D02*
G37*
G36*
X288808Y252141D02*
X285847D01*
Y257856D01*
X288808D01*
Y252141D01*
D02*
G37*
G36*
X202048Y255641D02*
X199087D01*
Y261355D01*
X202048D01*
Y255641D01*
D02*
G37*
G36*
X196339D02*
X193387D01*
Y261352D01*
X196339D01*
Y255641D01*
D02*
G37*
D19*
X177287Y278500D02*
X176743Y279249D01*
X175863Y278963D01*
Y278037D01*
X176743Y277751D01*
X177287Y278500D01*
X176743Y279249D01*
X175863Y278963D01*
Y278037D01*
X176743Y277751D01*
X177287Y278500D01*
D21*
X164000Y223500D02*
Y283500D01*
X186500D01*
Y223500D02*
Y283500D01*
X164000Y223500D02*
X186500D01*
X164000D02*
Y283500D01*
X186500D01*
Y223500D02*
Y283500D01*
X164000Y223500D02*
X186500D01*
D29*
X231500Y241098D02*
X234500D01*
X231598Y235901D02*
X234500D01*
X231500Y241098D02*
X234500D01*
X231598Y235901D02*
X234500D01*
X266000Y236098D02*
X269000D01*
X266098Y230902D02*
X269000D01*
X266000Y236098D02*
X269000D01*
X266098Y230902D02*
X269000D01*
X265500Y268598D02*
X268500D01*
X265598Y263402D02*
X268500D01*
X265500Y268598D02*
X268500D01*
X265598Y263402D02*
X268500D01*
X196000Y231099D02*
X199000D01*
X196098Y225902D02*
X199000D01*
X196000Y231099D02*
X199000D01*
X196098Y225902D02*
X199000D01*
X196000Y241098D02*
X199000D01*
X196098Y235902D02*
X199000D01*
X196000Y241098D02*
X199000D01*
X196098Y235902D02*
X199000D01*
X196240Y245902D02*
X199240D01*
X196240Y251098D02*
X199142D01*
X196240Y245902D02*
X199240D01*
X196240Y251098D02*
X199142D01*
X196240Y255902D02*
X199240D01*
X196240Y261099D02*
X199142D01*
X196240Y255902D02*
X199240D01*
X196240Y261099D02*
X199142D01*
X196240Y265902D02*
X199240D01*
X196240Y271098D02*
X199142D01*
X196240Y265902D02*
X199240D01*
X196240Y271098D02*
X199142D01*
X196000Y275402D02*
X199000D01*
X196000Y280598D02*
X198902D01*
X196000Y275402D02*
X199000D01*
X196000Y280598D02*
X198902D01*
X283000Y252401D02*
X286000D01*
X283000Y257598D02*
X285902D01*
X283000Y252401D02*
X286000D01*
X283000Y257598D02*
X285902D01*
X283000Y242402D02*
X286000D01*
X283000Y247599D02*
X285902D01*
X283000Y242402D02*
X286000D01*
X283000Y247599D02*
X285902D01*
M02*
