G04 Layer_Color=8388736*
%FSLAX25Y25*%
%MOIN*%
G70*
G01*
G75*
%ADD10R,0.08900X0.09800*%
%ADD22R,0.05918X0.06706*%
%ADD23R,0.08674X0.07099*%
%ADD24R,0.08674X0.08674*%
%ADD25C,0.06800*%
%ADD26R,0.06800X0.06800*%
%ADD27C,0.05800*%
D10*
X251000Y254500D02*
D03*
X230000D02*
D03*
D22*
X229260Y238500D02*
D03*
X236740D02*
D03*
X263760Y233500D02*
D03*
X271240D02*
D03*
X263260Y266000D02*
D03*
X270740D02*
D03*
X193760Y228500D02*
D03*
X201240D02*
D03*
X193760Y238500D02*
D03*
X201240D02*
D03*
X201480Y248500D02*
D03*
X194000D02*
D03*
X201480Y258500D02*
D03*
X194000D02*
D03*
X201480Y268500D02*
D03*
X194000D02*
D03*
X201240Y278000D02*
D03*
X193760D02*
D03*
X288240Y255000D02*
D03*
X280760D02*
D03*
X288240Y245000D02*
D03*
X280760D02*
D03*
D23*
X283189Y277126D02*
D03*
Y267874D02*
D03*
Y232126D02*
D03*
Y222874D02*
D03*
D24*
X306811Y272500D02*
D03*
Y227500D02*
D03*
D25*
X267500Y222500D02*
D03*
X257500D02*
D03*
X235000D02*
D03*
X245000D02*
D03*
X267500Y277500D02*
D03*
X257500D02*
D03*
X235000D02*
D03*
X245000D02*
D03*
X176500Y268500D02*
D03*
Y258500D02*
D03*
Y248500D02*
D03*
Y238500D02*
D03*
Y228500D02*
D03*
D26*
Y278500D02*
D03*
D27*
X221500Y268500D02*
D03*
X213000Y228500D02*
D03*
M02*
